<svg xmlns="http://www.w3.org/2000/svg" viewBox="0 0 280 78.62">
  <path d="M35.25 34.91a4.511 4.511 0 000 9.02c2.49 0 4.51-2.02 4.51-4.51 0-2.48-2.02-4.51-4.51-4.51zm28.89.82c-2.26 0-4.08 1.84-4.08 4.09 0 2.26 1.84 4.08 4.09 4.08 2.26 0 4.08-1.84 4.08-4.09a4.08 4.08 0 00-4.09-4.08zm120.98-.58c-2.33 0-4.21 1.89-4.2 4.22 0 2.33 1.89 4.21 4.22 4.21s4.21-1.89 4.2-4.22a4.225 4.225 0 00-4.22-4.21zm60.85-.76c-2.26 0-4.08 1.84-4.08 4.09 0 2.26 1.84 4.08 4.09 4.08 2.26 0 4.09-1.83 4.08-4.09 0-2.26-1.83-4.09-4.09-4.08z" fill="#f7b9d4"/>
  <path d="M10.83 12.27a26.648 26.648 0 00-8.49-5.72L0 12.08a20.71 20.71 0 016.58 4.44c1.88 1.88 3.39 4.11 4.44 6.59 1.05 2.48 1.63 5.19 1.63 8.06v21.01h6.01V31.16c0-3.68-.75-7.2-2.1-10.4-1.36-3.2-3.32-6.08-5.73-8.49zM0 12.08zm35.63 14.1c-7.1 0-12.86 5.76-12.86 12.86S28.53 51.9 35.63 51.9s12.86-5.76 12.86-12.86-5.75-12.86-12.86-12.86zm0 19.72c-3.78-.01-6.85-3.07-6.85-6.85.01-3.79 3.07-6.85 6.85-6.85 3.78.01 6.85 3.07 6.85 6.85s-3.06 6.84-6.85 6.85zm92.29-19.84h-.02c-1.63 0-3.2.34-4.63.94-1.42.6-2.7 1.47-3.78 2.56-.11.11-.22.24-.33.36-.16-.17-.31-.35-.47-.52a11.397 11.397 0 00-3.61-2.42c-1.02-.41-1.89-.54-2.69-.68-.77-.12-1.38-.19-1.42-.19l-.61 5.98.3.03c.3.04.78.1 1.23.19.43.07.86.2.86.21.63.27 1.21.66 1.7 1.14a5.28 5.28 0 011.57 3.77v4.7h.01V52.17h6.01l-.01-7.65-.01-5.74c0-.43.05-1.11.15-1.73.09-.65.26-1.3.31-1.39.29-.7.72-1.33 1.26-1.86.53-.54 1.17-.97 1.87-1.27.7-.3 1.46-.46 2.28-.46h.11c.78.01 1.52.17 2.2.46l2.33-5.54c-1.42-.6-2.99-.93-4.61-.93zm-17.8 19.2a9.32 9.32 0 01-1.03-.25 6.52 6.52 0 01-2.01-1.35 6.32 6.32 0 01-1.36-2.01 6.2 6.2 0 01-.5-2.45v-5.62l.01-7.28h-6.01v.01h-.01v9.16l-.01 5.05c0 1.53-.62 2.89-1.62 3.9-1 .99-2.36 1.6-3.89 1.6H93.63a5.502 5.502 0 01-3.86-1.61c-1-1-1.61-2.36-1.62-3.89l-.01-5.05-.01-9.17-6.01.01.01 9.17v2.86l-4.62 4.03v-3.18c-.01-7.1-5.77-12.84-12.86-12.84h-.08c-7.07.05-12.78 5.79-12.78 12.86v.08c.05 7.07 5.79 12.78 12.86 12.78h.01c.65 0 1.29-.07 1.91-.16l-8.33 7.27-.08.08a11.3 11.3 0 00-3.31 8.01v.02c0 3.12 1.28 5.98 3.34 8.02 2.05 2.04 4.9 3.31 8.02 3.31h.01c3.13 0 5.98-1.28 8.03-3.34 2.04-2.05 3.31-4.89 3.31-8.01v-.02l-.03-16.93 5.7-4.97c.58 1.24 1.35 2.36 2.3 3.31 2.08 2.07 4.97 3.36 8.13 3.36h.43l.03-.01c2.99-.11 5.71-1.37 7.69-3.35.3-.3.57-.61.84-.94.06.06.11.13.18.19a12.23 12.23 0 003.92 2.63c1.08.43 2.04.58 2.92.74.86.14 1.53.2 1.56.21l.61-5.98s-.12-.01-.34-.04c-.32-.03-.87-.11-1.38-.21zm-45.44.8c.01 0-.01 0 0 0-3.79 0-6.86-3.06-6.87-6.84v-.09c.04-3.74 3.09-6.77 6.84-6.77h.09c3.74.04 6.76 3.09 6.77 6.84v.01c.02 3.77-3.05 6.84-6.83 6.85zm6.89 21.21c0 1.47-.59 2.79-1.56 3.77-.97.97-2.29 1.56-3.77 1.57.01 0 0 0 0 0-1.48 0-2.8-.59-3.78-1.56a5.279 5.279 0 01-1.57-3.78v-.01c0-1.45.56-2.74 1.49-3.7l9.18-8.01.02 11.7v.02zm158.2-28c-.02-7.15-5.8-12.93-12.94-12.94H216.66c-7.1.08-12.81 5.86-12.81 12.96v.09l.02 12.27 6.01-.01-.02-12.42c.04-3.8 3.13-6.88 6.94-6.89h.12c3.79.06 6.84 3.14 6.85 6.94l.02 12.34 6.01-.01-.03-12.33zm35.6 6.25h-.11a6.94 6.94 0 01-6.92-6.94V6.95h-6.01v21.19a12.858 12.858 0 00-6.94-2.03h-.1c-7.12.05-12.86 5.84-12.86 12.96v.09c.05 7.12 5.83 12.87 12.96 12.87h.02c4.12-.01 7.78-1.94 10.15-4.93a12.92 12.92 0 009.39 4.43h2.39v-6.01h-1.97zm-13.03-6.45c0 3.83-3.11 6.95-6.95 6.96h-.01c-3.83 0-6.95-3.11-6.95-6.94v-.14c.07-3.77 3.15-6.82 6.94-6.82h.06c3.81.01 6.9 3.11 6.91 6.94zm-53.5 4.33l-.01-3.92c0-.1.02-.2.02-.31v-.02h-.02v-.01h.02c0-.11-.01-.22-.02-.33v-.21h-.01c-.3-6.9-5.97-12.39-12.93-12.39h-.02c-7.15.01-12.94 5.81-12.94 12.96v.08c.01.99.13 1.95.35 2.88l-2.52 2.53c-.98.97-2.29 1.57-3.77 1.57h-.01c-1.48 0-2.8-.59-3.78-1.56-.97-.98-1.57-2.29-1.57-3.77v-2.67l13.34-12.76.01-.01a11.35 11.35 0 003.29-7.27l.03-.05v-.71A11.356 11.356 0 00166.98 6.1h-.17c-3.08.03-5.89 1.31-7.91 3.34a11.324 11.324 0 00-3.31 8.01V17.55l.03 18.13-9.3 8.89-.64.62c-.53.53-1.18.83-1.94.85h-.06c-.78 0-1.46-.31-1.97-.81-.51-.51-.82-1.19-.82-1.97V25.17l10.06-.01-.01-6.01-10.06.01V7.71h-6.01v35.53c0 2.42.99 4.64 2.59 6.22a8.785 8.785 0 005.81 2.56l.04.01h.38c2.42 0 4.63-1 6.21-2.59l.59-.57 5.47-5.23a11.4 11.4 0 003 5.29 11.32 11.32 0 007.63 3.3l.03.01h.38c3.13 0 5.98-1.29 8.02-3.34l1.17-1.17c2.37 2.69 5.84 4.39 9.71 4.39h.02c3.13-.01 6-1.12 8.23-2.97.67 1.39 1.56 2.65 2.63 3.72l4.24-4.26a7.24 7.24 0 01-2.18-5.21zm-37.25-26c.01-1.46.6-2.76 1.56-3.73.97-.97 2.29-1.57 3.78-1.57h.09c1.45.03 2.73.61 3.69 1.56a5.37 5.37 0 011.57 3.74v.04c0 1.47-.58 2.78-1.54 3.76l-9.12 8.72-.03-12.52zm24.36 28.72h-.07c-3.83 0-6.95-3.11-6.95-6.94v-.1c.05-3.79 3.14-6.86 6.94-6.86h.01a6.95 6.95 0 016.94 6.63v.62c-.15 3.67-3.17 6.61-6.87 6.65zm85.41.42c-1.28-.01-2.36.98-2.37 2.32a2.327 2.327 0 002.32 2.37c1.27.01 2.36-.98 2.37-2.32a2.32 2.32 0 00-2.32-2.37zm-.04 4.35c-1.08-.01-1.92-.89-1.91-2.03.01-1.13.87-2 1.95-1.99 1.07.01 1.92.89 1.91 2.03-.01 1.14-.88 2-1.95 1.99zm1.12-2.59c.01-.52-.3-.79-.95-.79l-1.03-.01-.03 2.74h.42l.01-1.18h.45l.73 1.19h.45l-.78-1.22c.41-.03.73-.23.73-.73zm-1.15.43h-.43l.01-.88.55.01c.28 0 .61.05.61.43-.01.43-.37.44-.74.44z" fill="#960953"/>
  <path d="M37.8 6.14c-.25-.02-.61-.03-1.04-.03-3.05 0-10.03.66-15.14 6.01-2.05 2.14-2.66 4.84-2.67 7.34 0 2.57.66 4.87 1.02 5.92.68-1.64 2.61-5.77 6.14-9.79 3.76-4.27 7.94-6.11 7.94-6.11l.45.65c-3.43 1.85-5.46 4.67-5.74 5.07.09-.05.4-.12 1.5-.01 1.65.17 2.14.76 2.14.76s-2-.21-5.04 1.8c-2.82 1.86-5.48 6.46-6.26 7.88 2.7-.02 8.58-.45 11.2-2.69 4.79-4 5.64-10.27 5.64-14.07 0-.96-.05-1.77-.11-2.32-.01-.16-.02-.3-.03-.41zM279.89.43c-.02-.16-.03-.29-.04-.4-.25-.02-.61-.03-1.04-.03-3.04 0-10.03.66-15.14 6.01-2.05 2.14-2.66 4.84-2.66 7.34 0 2.57.66 4.87 1.02 5.92.68-1.64 2.61-5.77 6.14-9.79 3.76-4.27 7.94-6.11 7.94-6.11l.45.65c-3.43 1.85-5.46 4.67-5.73 5.07.08-.05.4-.12 1.5-.01 1.65.17 2.13.76 2.13.76s-2-.21-5.04 1.8c-2.82 1.86-5.48 6.46-6.26 7.88 2.7-.02 8.58-.45 11.2-2.69 4.79-4 5.64-10.27 5.63-14.07.01-.97-.04-1.77-.1-2.33zm-13.97 20.69c-1.43 0-2.72.37-3.31.57.92.38 3.22 1.46 5.47 3.43 2.39 2.1 3.41 4.43 3.41 4.43l-.36.25c-3.05-4.68-7.87-6.21-8.66-6.64.01 1.51.25 3.96 1.51 5.42 2.24 2.68 5.73 3.15 7.86 3.15.54 0 .99-.03 1.3-.06.09-.01.16-.02.23-.02.01-.14.02-.34.02-.58 0-1.7-.37-5.6-3.36-8.46-1.21-1.15-2.72-1.49-4.11-1.49z" fill="#8dc63f"/>
</svg>